PathFileType	4	(X/Y/Z)	/home/nbianco/projects/addbio/data/HamnerRunning2013/Processed/subject08//results/MarkerData/run200.trc
DataRate	CameraRate	NumFrames	NumMarkers	Units	OrigDataRate	OrigDataStartFrame	OrigNumFrames
100	100	10	42	m	100	53	215
Frame#	Time	C7			CLAV			LACR			LASI			LCAL			LFAradius			LFAsuperior			LFAulna			LLEL			LMEL			LMT5			LPSI			LTB1			LTB2			LTB3			LTH1			LTH2			LTH3			LTOE			LUA1			LUA2			LUA3			RACR			RASI			RCAL			RFAradius			RFAsuperior			RFAulna			RLEL			RMEL			RMT5			RPSI			RTB1			RTB2			RTB3			RTH1			RTH2			RTH3			RTOE			RUA1			RUA2			RUA3		
		X1	Y1	Z1	X2	Y2	Z2	X3	Y3	Z3	X4	Y4	Z4	X5	Y5	Z5	X6	Y6	Z6	X7	Y7	Z7	X8	Y8	Z8	X9	Y9	Z9	X10	Y10	Z10	X11	Y11	Z11	X12	Y12	Z12	X13	Y13	Z13	X14	Y14	Z14	X15	Y15	Z15	X16	Y16	Z16	X17	Y17	Z17	X18	Y18	Z18	X19	Y19	Z19	X20	Y20	Z20	X21	Y21	Z21	X22	Y22	Z22	X23	Y23	Z23	X24	Y24	Z24	X25	Y25	Z25	X26	Y26	Z26	X27	Y27	Z27	X28	Y28	Z28	X29	Y29	Z29	X30	Y30	Z30	X31	Y31	Z31	X32	Y32	Z32	X33	Y33	Z33	X34	Y34	Z34	X35	Y35	Z35	X36	Y36	Z36	X37	Y37	Z37	X38	Y38	Z38	X39	Y39	Z39	X40	Y40	Z40	X41	Y41	Z41	X42	Y42	Z42

54	1.34	0.713593	1.54809	-0.505581	0.847872	1.46779	-0.45443	0.789472	1.5115	-0.657824	0.804735	0.999909	-0.610176	0.461674	0.11407	-0.529949	0.899575	1.20345	-0.638509	0.833007	1.18384	-0.779795	0.889047	1.1366	-0.656766	0.750074	1.23341	-0.861341	0.685619	1.19865	-0.826472	0.647864	0.0492343	-0.634191	0.612644	1.07238	-0.521982	0.741523	0.395858	-0.569466	0.658724	0.340199	-0.631268	0.640794	0.212974	-0.550404	0.726949	0.882866	-0.670758	0.797462	0.767329	-0.649795	0.721049	0.629085	-0.639092	0.691696	0.0686281	-0.554795	0.754557	1.41759	-0.760547	0.686859	1.33818	-0.765582	0.740676	1.31416	-0.821922	0.749665	1.50982	-0.317371	0.800445	0.991161	-0.356973	0.445838	0.28789	-0.383803	0.818111	1.12965	-0.290188	0.63365	1.16512	-0.203867	0.777608	1.06985	-0.284249	0.575388	1.2237	-0.191243	0.542341	1.21133	-0.266946	0.556585	0.118519	-0.28493	0.61307	1.06855	-0.436598	0.791186	0.402496	-0.356153	0.685816	0.37523	-0.306683	0.631504	0.28641	-0.361945	0.761075	0.861379	-0.2957	0.855281	0.745758	-0.30676	0.811796	0.630412	-0.311116	0.604126	0.117122	-0.367903	0.668783	1.41263	-0.242914	0.587097	1.35546	-0.279803	0.606242	1.31434	-0.215579
55	1.35	0.714686	1.55263	-0.504913	0.847853	1.4722	-0.452292	0.792931	1.51641	-0.655797	0.803507	1.00557	-0.609404	0.444074	0.12015	-0.530316	0.906622	1.21484	-0.633841	0.84326	1.19153	-0.775763	0.898929	1.1473	-0.651324	0.760393	1.23728	-0.859189	0.695599	1.20093	-0.825364	0.627753	0.0494735	-0.633977	0.613628	1.07595	-0.522842	0.725988	0.398324	-0.568819	0.642451	0.344154	-0.630797	0.624443	0.216853	-0.551725	0.723949	0.8853	-0.669739	0.79144	0.768228	-0.64904	0.710725	0.632198	-0.637936	0.672247	0.0686232	-0.555043	0.761069	1.42201	-0.759136	0.694243	1.34248	-0.76718	0.750111	1.31785	-0.820105	0.74846	1.51498	-0.316588	0.798759	0.997571	-0.356222	0.464465	0.271132	-0.382558	0.809476	1.13615	-0.287171	0.625354	1.17477	-0.202444	0.768465	1.07694	-0.282055	0.567686	1.23371	-0.190543	0.534837	1.2216	-0.266374	0.587859	0.110406	-0.284315	0.612178	1.07297	-0.437914	0.803788	0.406602	-0.356816	0.699958	0.373475	-0.306497	0.650516	0.281704	-0.361643	0.761265	0.86762	-0.295407	0.857661	0.753264	-0.30698	0.815868	0.637206	-0.311655	0.635047	0.112527	-0.367454	0.665103	1.42022	-0.242887	0.582965	1.3643	-0.280153	0.600714	1.32355	-0.215047
56	1.36	0.715715	1.55783	-0.504152	0.847816	1.47749	-0.449901	0.796244	1.52234	-0.653512	0.802599	1.01191	-0.608917	0.427287	0.127269	-0.53085	0.912716	1.22703	-0.629307	0.852436	1.20027	-0.771738	0.907592	1.15917	-0.645867	0.769855	1.24251	-0.856924	0.704764	1.20465	-0.824092	0.607845	0.0498398	-0.633814	0.614393	1.08027	-0.523546	0.710749	0.401881	-0.56833	0.626466	0.349228	-0.630482	0.608478	0.221508	-0.553042	0.721374	0.88855	-0.668561	0.785817	0.769998	-0.64786	0.70065	0.636369	-0.636811	0.653253	0.0685454	-0.555485	0.766902	1.42759	-0.757431	0.701154	1.34816	-0.768203	0.758907	1.32285	-0.817895	0.747128	1.52078	-0.31572	0.797392	1.00467	-0.355758	0.484678	0.253416	-0.381431	0.801347	1.14344	-0.284549	0.617608	1.18493	-0.200908	0.760106	1.08468	-0.279384	0.560484	1.24408	-0.189875	0.527707	1.23238	-0.265677	0.620106	0.102403	-0.28391	0.611832	1.07806	-0.439229	0.815563	0.411113	-0.357281	0.713992	0.371316	-0.306175	0.670062	0.276704	-0.36133	0.761293	0.8746	-0.295252	0.859651	0.76117	-0.307346	0.819142	0.644514	-0.311808	0.666792	0.108099	-0.367269	0.661579	1.42833	-0.24285	0.579066	1.37375	-0.280069	0.595712	1.33309	-0.214358
57	1.37	0.71676	1.56361	-0.503271	0.847757	1.48345	-0.447351	0.799381	1.529	-0.651164	0.802003	1.01853	-0.608375	0.411466	0.135485	-0.531561	0.917758	1.23984	-0.624837	0.860567	1.20963	-0.76773	0.914842	1.1719	-0.640283	0.778488	1.2487	-0.854583	0.71336	1.20954	-0.822694	0.588253	0.0503986	-0.633773	0.614998	1.08548	-0.524247	0.696087	0.406427	-0.568232	0.611047	0.355329	-0.630427	0.592904	0.226785	-0.554122	0.719643	0.892594	-0.667366	0.780871	0.772617	-0.646345	0.691161	0.641485	-0.635836	0.634622	0.0683721	-0.556018	0.772289	1.43404	-0.755599	0.707508	1.35465	-0.768238	0.766915	1.32886	-0.815537	0.745715	1.52696	-0.314724	0.796339	1.01204	-0.355238	0.506497	0.234993	-0.380433	0.793806	1.15127	-0.28211	0.610317	1.19519	-0.199433	0.752442	1.0928	-0.276259	0.553728	1.2546	-0.189247	0.521071	1.24333	-0.26508	0.653394	0.0946212	-0.283845	0.612022	1.0837	-0.440332	0.826457	0.415915	-0.357467	0.727825	0.368802	-0.30566	0.690076	0.271582	-0.360876	0.761511	0.881783	-0.294978	0.86112	0.769183	-0.307721	0.821561	0.652078	-0.311551	0.699267	0.104066	-0.367283	0.658148	1.43661	-0.242869	0.575444	1.38351	-0.279807	0.591071	1.34277	-0.213563
58	1.38	0.717853	1.56983	-0.502202	0.84766	1.48982	-0.444711	0.802349	1.53607	-0.648733	0.801778	1.02511	-0.607655	0.396739	0.144791	-0.532478	0.921756	1.25297	-0.620413	0.867724	1.21928	-0.763761	0.920791	1.18501	-0.634649	0.786236	1.25545	-0.852147	0.721498	1.21527	-0.821199	0.569013	0.0511318	-0.633823	0.615963	1.09143	-0.525089	0.68205	0.411711	-0.568356	0.59644	0.362247	-0.630639	0.578005	0.232625	-0.555135	0.718873	0.897224	-0.666243	0.776702	0.775928	-0.644778	0.682423	0.647332	-0.635027	0.616085	0.0680824	-0.556431	0.777427	1.44105	-0.753729	0.713377	1.36164	-0.767409	0.774053	1.33559	-0.813238	0.744293	1.53333	-0.31357	0.795656	1.01938	-0.35454	0.529956	0.216166	-0.37958	0.786912	1.15941	-0.279533	0.603452	1.20529	-0.198078	0.74542	1.10113	-0.272805	0.547373	1.26512	-0.188605	0.515101	1.25412	-0.264764	0.687665	0.087199	-0.284065	0.612785	1.08973	-0.441189	0.836442	0.420768	-0.357226	0.741294	0.36605	-0.304887	0.710512	0.266541	-0.360255	0.7622	0.888853	-0.294593	0.86196	0.777013	-0.307957	0.822891	0.659589	-0.311001	0.732395	0.100729	-0.367292	0.654868	1.44493	-0.242864	0.572204	1.39315	-0.279697	0.586676	1.35246	-0.212737
59	1.39	0.718969	1.57627	-0.500913	0.847511	1.49637	-0.442028	0.805143	1.54321	-0.645918	0.80196	1.03156	-0.606946	0.383232	0.155084	-0.533615	0.924917	1.26598	-0.616141	0.87396	1.22899	-0.759855	0.925751	1.19788	-0.629174	0.793042	1.26236	-0.849594	0.729043	1.22143	-0.819563	0.550072	0.0519583	-0.633829	0.617574	1.09774	-0.525984	0.668811	0.417536	-0.568542	0.582845	0.369723	-0.631058	0.564216	0.239005	-0.556445	0.718855	0.902141	-0.665216	0.773232	0.779703	-0.643394	0.674495	0.653635	-0.634367	0.597384	0.0677029	-0.556524	0.782364	1.44833	-0.751775	0.718787	1.36891	-0.766112	0.780299	1.34267	-0.811034	0.742945	1.5397	-0.312274	0.795379	1.02658	-0.353853	0.555091	0.197319	-0.378855	0.780697	1.16766	-0.276641	0.596999	1.21507	-0.196817	0.739061	1.10949	-0.269174	0.54138	1.27546	-0.187964	0.509831	1.26449	-0.264761	0.722681	0.0805105	-0.284195	0.614152	1.09598	-0.44191	0.845423	0.42535	-0.356325	0.754271	0.363208	-0.303787	0.731336	0.261774	-0.35948	0.763246	0.895806	-0.294231	0.862095	0.78441	-0.307955	0.822854	0.66677	-0.31028	0.766073	0.0984046	-0.367028	0.651862	1.45324	-0.242665	0.569454	1.40229	-0.279982	0.582507	1.36206	-0.21199
60	1.4	0.72007	1.58268	-0.49943	0.847319	1.50291	-0.439335	0.807712	1.5501	-0.642395	0.802475	1.03784	-0.606287	0.371096	0.166189	-0.534929	0.927566	1.27833	-0.612172	0.879312	1.23845	-0.756019	0.929972	1.21004	-0.624007	0.798988	1.26916	-0.846985	0.735734	1.22771	-0.817662	0.531373	0.0528296	-0.633655	0.619628	1.10397	-0.526662	0.656746	0.423788	-0.568892	0.570413	0.377517	-0.631631	0.551858	0.245803	-0.55825	0.719234	0.907114	-0.664293	0.770278	0.783745	-0.642287	0.667411	0.660132	-0.633864	0.578505	0.06733	-0.556252	0.787018	1.4556	-0.749577	0.723641	1.37621	-0.764649	0.785663	1.34973	-0.808809	0.741734	1.54589	-0.310887	0.795436	1.03362	-0.353216	0.581887	0.178882	-0.378154	0.775178	1.17571	-0.273444	0.590945	1.22438	-0.195615	0.73338	1.11766	-0.265491	0.535752	1.28533	-0.187467	0.50512	1.27426	-0.264969	0.758154	0.0751031	-0.283864	0.616032	1.10224	-0.442575	0.853249	0.429441	-0.354682	0.766756	0.360394	-0.30232	0.752443	0.257446	-0.358492	0.764171	0.902738	-0.293837	0.861476	0.791151	-0.307684	0.8213	0.673398	-0.309428	0.800119	0.0973517	-0.366384	0.649186	1.46141	-0.242181	0.567213	1.41077	-0.280667	0.57858	1.37141	-0.211443
61	1.41	0.72114	1.58883	-0.497795	0.847115	1.50929	-0.436659	0.81001	1.55652	-0.638237	0.803197	1.04377	-0.605311	0.360484	0.17793	-0.536327	0.929936	1.28967	-0.60854	0.883818	1.24739	-0.752241	0.933491	1.22125	-0.619092	0.804256	1.27572	-0.844478	0.741398	1.23391	-0.81539	0.512932	0.0538189	-0.633281	0.621769	1.10984	-0.526939	0.64619	0.430288	-0.569584	0.559267	0.385404	-0.632352	0.540986	0.252762	-0.560441	0.719716	0.912025	-0.663495	0.767677	0.787878	-0.641493	0.661211	0.6666	-0.633539	0.55975	0.0670903	-0.555763	0.791277	1.46259	-0.746999	0.727825	1.38327	-0.763058	0.790166	1.35652	-0.806437	0.740682	1.55173	-0.309451	0.7957	1.0403	-0.352263	0.610193	0.161344	-0.377298	0.77037	1.18328	-0.270027	0.585327	1.2331	-0.194475	0.728313	1.12533	-0.261828	0.53055	1.29448	-0.187281	0.500816	1.28331	-0.265282	0.793867	0.0713467	-0.283153	0.618153	1.10828	-0.443088	0.859843	0.433078	-0.352553	0.778849	0.357675	-0.300542	0.773624	0.253715	-0.357159	0.76454	0.909562	-0.293221	0.860085	0.797016	-0.307164	0.818275	0.679261	-0.308432	0.834195	0.0977384	-0.365514	0.646806	1.46918	-0.241478	0.56538	1.41865	-0.281541	0.574893	1.38023	-0.211183
62	1.42	0.722176	1.59453	-0.496037	0.84693	1.51536	-0.434027	0.812059	1.56243	-0.63402	0.804081	1.049	-0.603685	0.351454	0.190159	-0.537735	0.932004	1.29984	-0.605098	0.88753	1.25561	-0.748503	0.936196	1.23143	-0.614234	0.808929	1.282	-0.842169	0.746071	1.23993	-0.812783	0.494825	0.0551177	-0.632813	0.623876	1.11527	-0.526887	0.637235	0.436694	-0.570586	0.54952	0.393132	-0.633228	0.53144	0.259592	-0.562749	0.720171	0.916799	-0.662818	0.765387	0.79191	-0.641071	0.655932	0.672826	-0.633354	0.541543	0.0670753	-0.555301	0.795053	1.46914	-0.744103	0.731325	1.38988	-0.761207	0.793856	1.36287	-0.803894	0.739778	1.55704	-0.308	0.796127	1.04629	-0.350659	0.639615	0.145328	-0.37616	0.76629	1.19018	-0.266433	0.580248	1.24114	-0.19343	0.723787	1.13226	-0.258203	0.525842	1.30275	-0.187437	0.496978	1.29146	-0.265731	0.829526	0.0691974	-0.282526	0.620177	1.11392	-0.443224	0.865302	0.436499	-0.350377	0.790606	0.355142	-0.298608	0.794592	0.250785	-0.355385	0.764348	0.91593	-0.292386	0.85795	0.801791	-0.306402	0.813931	0.684104	-0.307356	0.86777	0.0996134	-0.364627	0.644662	1.4763	-0.240693	0.563821	1.42597	-0.282382	0.571437	1.38824	-0.211221
63	1.43	0.723165	1.59963	-0.494172	0.846776	1.5209	-0.431466	0.813917	1.56787	-0.630397	0.805202	1.05331	-0.60166	0.343875	0.202746	-0.53916	0.933556	1.30876	-0.60163	0.89051	1.26295	-0.744805	0.938029	1.24049	-0.609317	0.812874	1.28789	-0.839948	0.749924	1.24561	-0.810029	0.477099	0.05695	-0.632376	0.626067	1.12025	-0.52674	0.629796	0.442591	-0.571666	0.541265	0.400423	-0.634228	0.522983	0.266076	-0.56497	0.720606	0.92132	-0.662174	0.763519	0.795632	-0.641033	0.651653	0.678572	-0.63319	0.524134	0.0673292	-0.555037	0.798283	1.47512	-0.741138	0.734215	1.39587	-0.758982	0.796829	1.36875	-0.801268	0.739025	1.56167	-0.306553	0.79679	1.05135	-0.348655	0.669411	0.131596	-0.374783	0.762941	1.1963	-0.262623	0.575819	1.24835	-0.192514	0.719874	1.1384	-0.254603	0.521658	1.31008	-0.187812	0.493886	1.2985	-0.266464	0.864427	0.0683856	-0.282211	0.621931	1.11904	-0.442883	0.869865	0.43991	-0.34847	0.801915	0.353006	-0.296712	0.815001	0.248906	-0.353191	0.763948	0.921409	-0.291562	0.855146	0.8053	-0.305364	0.808438	0.68768	-0.306386	0.900113	0.102892	-0.363675	0.642715	1.48263	-0.239925	0.562464	1.43254	-0.283138	0.568243	1.39527	-0.211465
